<svg width="238" height="31" viewBox="0 0 238 31" fill="none" xmlns="http://www.w3.org/2000/svg">
<path d="M26.108 30H20.312L19.88 20.244C19.76 17.916 19.7 15.84 19.7 14.016C19.7 12.624 19.736 11.304 19.808 10.056L15.956 27.372H10.376L6.27199 10.056C6.41599 12.144 6.48799 14.112 6.48799 15.96C6.48799 17.352 6.45199 18.804 6.37999 20.316L5.94799 30H0.187988L2.05999 5.05199H9.51199L13.256 21.972L16.748 5.05199H24.236L26.108 30Z" fill="#141414"/>
<path d="M44.7248 24.456C44.7248 25.176 44.8208 25.704 45.0128 26.04C45.2288 26.376 45.5648 26.628 46.0208 26.796L44.8328 30.504C43.6568 30.408 42.6968 30.156 41.9528 29.748C41.2088 29.316 40.6328 28.644 40.2248 27.732C38.9768 29.652 37.0568 30.612 34.4648 30.612C32.5688 30.612 31.0568 30.06 29.9288 28.956C28.8008 27.852 28.2368 26.412 28.2368 24.636C28.2368 22.548 29.0048 20.952 30.5408 19.848C32.0768 18.744 34.2968 18.192 37.2008 18.192H39.1448V17.364C39.1448 16.236 38.9048 15.468 38.4248 15.06C37.9448 14.628 37.1048 14.412 35.9048 14.412C35.2808 14.412 34.5248 14.508 33.6368 14.7C32.7488 14.868 31.8368 15.108 30.9008 15.42L29.6048 11.676C30.8048 11.22 32.0288 10.872 33.2768 10.632C34.5488 10.392 35.7248 10.272 36.8048 10.272C39.5408 10.272 41.5448 10.836 42.8168 11.964C44.0888 13.092 44.7248 14.784 44.7248 17.04V24.456ZM36.1208 26.544C37.4168 26.544 38.4248 25.932 39.1448 24.708V21.324H37.7408C36.4448 21.324 35.4728 21.552 34.8248 22.008C34.2008 22.464 33.8888 23.172 33.8888 24.132C33.8888 24.9 34.0808 25.5 34.4648 25.932C34.8728 26.34 35.4248 26.544 36.1208 26.544Z" fill="#141414"/>
<path d="M61.2434 29.1C60.5474 29.58 59.7314 29.952 58.7954 30.216C57.8834 30.48 56.9714 30.612 56.0594 30.612C51.8834 30.588 49.7954 28.284 49.7954 23.7V14.844H47.0954V10.884H49.7954V6.74399L55.4834 6.09599V10.884H59.8754L59.2634 14.844H55.4834V23.628C55.4834 24.516 55.6274 25.152 55.9154 25.536C56.2034 25.92 56.6594 26.112 57.2834 26.112C57.9314 26.112 58.6154 25.908 59.3354 25.5L61.2434 29.1Z" fill="#141414"/>
<path d="M74.3381 10.272C75.9941 10.272 77.2901 10.776 78.2261 11.784C79.1621 12.792 79.6301 14.208 79.6301 16.032V30H73.9421V17.004C73.9421 16.044 73.7861 15.384 73.4741 15.024C73.1621 14.64 72.7181 14.448 72.1421 14.448C70.9901 14.448 69.8861 15.264 68.8301 16.896V30H63.1421V3.28799L68.8301 2.71199V12.936C69.6221 12.048 70.4621 11.388 71.3501 10.956C72.2381 10.5 73.2341 10.272 74.3381 10.272Z" fill="#141414"/>
<path d="M100.587 20.064C100.587 20.856 100.551 21.54 100.479 22.116H88.6355C88.8275 23.724 89.2835 24.852 90.0035 25.5C90.7235 26.148 91.7195 26.472 92.9915 26.472C93.7595 26.472 94.5035 26.34 95.2235 26.076C95.9435 25.788 96.7235 25.356 97.5635 24.78L99.9035 27.948C97.6715 29.724 95.1875 30.612 92.4515 30.612C89.3555 30.612 86.9795 29.7 85.3235 27.876C83.6675 26.052 82.8395 23.604 82.8395 20.532C82.8395 18.588 83.1875 16.848 83.8835 15.312C84.5795 13.752 85.5995 12.528 86.9435 11.64C88.2875 10.728 89.8955 10.272 91.7675 10.272C94.5275 10.272 96.6875 11.136 98.2475 12.864C99.8075 14.592 100.587 16.992 100.587 20.064ZM95.0075 18.444C94.9595 15.516 93.9275 14.052 91.9115 14.052C90.9275 14.052 90.1595 14.412 89.6075 15.132C89.0795 15.852 88.7555 17.04 88.6355 18.696H95.0075V18.444Z" fill="#141414"/>
<path d="M119.911 30H114.979L114.727 27.588C113.335 29.604 111.403 30.612 108.931 30.612C107.179 30.612 105.847 30.084 104.935 29.028C104.047 27.972 103.603 26.496 103.603 24.6V10.884H109.291V23.88C109.291 24.816 109.435 25.476 109.723 25.86C110.035 26.22 110.503 26.4 111.127 26.4C112.327 26.4 113.359 25.656 114.223 24.168V10.884H119.911V30Z" fill="#141414"/>
<path d="M131.116 10.272C132.484 10.272 133.768 10.476 134.968 10.884C136.168 11.292 137.224 11.868 138.136 12.612L136.048 15.816C134.488 14.832 132.916 14.34 131.332 14.34C130.588 14.34 130.012 14.472 129.604 14.736C129.22 14.976 129.028 15.324 129.028 15.78C129.028 16.14 129.112 16.44 129.28 16.68C129.472 16.896 129.844 17.124 130.396 17.364C130.948 17.604 131.8 17.892 132.952 18.228C134.944 18.804 136.42 19.56 137.38 20.496C138.364 21.408 138.856 22.68 138.856 24.312C138.856 25.608 138.484 26.736 137.74 27.696C136.996 28.632 135.976 29.352 134.68 29.856C133.384 30.36 131.944 30.612 130.36 30.612C128.752 30.612 127.252 30.36 125.86 29.856C124.492 29.352 123.328 28.656 122.368 27.768L125.14 24.672C126.748 25.92 128.44 26.544 130.216 26.544C131.08 26.544 131.752 26.388 132.232 26.076C132.736 25.764 132.988 25.32 132.988 24.744C132.988 24.288 132.892 23.928 132.7 23.664C132.508 23.4 132.136 23.16 131.584 22.944C131.032 22.704 130.156 22.416 128.956 22.08C127.06 21.528 125.644 20.76 124.708 19.776C123.772 18.792 123.304 17.568 123.304 16.104C123.304 15 123.616 14.016 124.24 13.152C124.888 12.264 125.8 11.568 126.976 11.064C128.176 10.536 129.556 10.272 131.116 10.272Z" fill="#141414"/>
<path d="M158.646 20.46H156.342V30H150.438V5.05199H158.61C162.018 5.05199 164.574 5.67599 166.278 6.92399C168.006 8.17199 168.87 10.08 168.87 12.648C168.87 14.256 168.486 15.6 167.718 16.68C166.95 17.736 165.738 18.636 164.082 19.38L170.418 30H163.758L158.646 20.46ZM156.342 16.392H158.826C160.146 16.392 161.13 16.092 161.778 15.492C162.45 14.892 162.786 13.944 162.786 12.648C162.786 11.448 162.426 10.572 161.706 10.02C161.01 9.46799 159.93 9.19199 158.466 9.19199H156.342V16.392Z" fill="#141414"/>
<path d="M178.236 10.884V30H172.548V10.884H178.236ZM175.356 0.803986C176.34 0.803986 177.144 1.11599 177.768 1.73999C178.416 2.33999 178.74 3.10799 178.74 4.04399C178.74 4.97999 178.416 5.75999 177.768 6.38399C177.144 6.98399 176.34 7.28399 175.356 7.28399C174.372 7.28399 173.568 6.98399 172.944 6.38399C172.32 5.75999 172.008 4.97999 172.008 4.04399C172.008 3.10799 172.32 2.33999 172.944 1.73999C173.568 1.11599 174.372 0.803986 175.356 0.803986Z" fill="#141414"/>
<path d="M193.545 10.272C195.825 10.272 197.577 11.172 198.801 12.972C200.025 14.748 200.637 17.244 200.637 20.46C200.637 22.428 200.325 24.18 199.701 25.716C199.101 27.252 198.225 28.452 197.073 29.316C195.945 30.18 194.601 30.612 193.041 30.612C192.009 30.612 191.061 30.396 190.197 29.964C189.357 29.532 188.637 28.932 188.037 28.164L187.749 30H182.709V3.28799L188.397 2.67599V12.828C188.973 12.036 189.705 11.412 190.593 10.956C191.505 10.5 192.489 10.272 193.545 10.272ZM191.385 26.472C193.617 26.472 194.733 24.468 194.733 20.46C194.733 18.18 194.469 16.608 193.941 15.744C193.413 14.88 192.645 14.448 191.637 14.448C190.365 14.448 189.285 15.192 188.397 16.68V24.636C188.757 25.212 189.189 25.668 189.693 26.004C190.221 26.316 190.785 26.472 191.385 26.472Z" fill="#141414"/>
<path d="M219.029 24.456C219.029 25.176 219.125 25.704 219.317 26.04C219.533 26.376 219.869 26.628 220.325 26.796L219.137 30.504C217.961 30.408 217.001 30.156 216.257 29.748C215.513 29.316 214.937 28.644 214.529 27.732C213.281 29.652 211.361 30.612 208.769 30.612C206.873 30.612 205.361 30.06 204.233 28.956C203.105 27.852 202.541 26.412 202.541 24.636C202.541 22.548 203.309 20.952 204.845 19.848C206.381 18.744 208.601 18.192 211.505 18.192H213.449V17.364C213.449 16.236 213.209 15.468 212.729 15.06C212.249 14.628 211.409 14.412 210.209 14.412C209.585 14.412 208.829 14.508 207.941 14.7C207.053 14.868 206.141 15.108 205.205 15.42L203.909 11.676C205.109 11.22 206.333 10.872 207.581 10.632C208.853 10.392 210.029 10.272 211.109 10.272C213.845 10.272 215.849 10.836 217.121 11.964C218.393 13.092 219.029 14.784 219.029 17.04V24.456ZM210.425 26.544C211.721 26.544 212.729 25.932 213.449 24.708V21.324H212.045C210.749 21.324 209.777 21.552 209.129 22.008C208.505 22.464 208.193 23.172 208.193 24.132C208.193 24.9 208.385 25.5 208.769 25.932C209.177 26.34 209.729 26.544 210.425 26.544Z" fill="#141414"/>
<path d="M229.941 10.272C231.309 10.272 232.593 10.476 233.793 10.884C234.993 11.292 236.049 11.868 236.961 12.612L234.873 15.816C233.313 14.832 231.741 14.34 230.157 14.34C229.413 14.34 228.837 14.472 228.429 14.736C228.045 14.976 227.853 15.324 227.853 15.78C227.853 16.14 227.937 16.44 228.105 16.68C228.297 16.896 228.669 17.124 229.221 17.364C229.773 17.604 230.625 17.892 231.777 18.228C233.769 18.804 235.245 19.56 236.205 20.496C237.189 21.408 237.681 22.68 237.681 24.312C237.681 25.608 237.309 26.736 236.565 27.696C235.821 28.632 234.801 29.352 233.505 29.856C232.209 30.36 230.769 30.612 229.185 30.612C227.577 30.612 226.077 30.36 224.685 29.856C223.317 29.352 222.153 28.656 221.193 27.768L223.965 24.672C225.573 25.92 227.265 26.544 229.041 26.544C229.905 26.544 230.577 26.388 231.057 26.076C231.561 25.764 231.813 25.32 231.813 24.744C231.813 24.288 231.717 23.928 231.525 23.664C231.333 23.4 230.961 23.16 230.409 22.944C229.857 22.704 228.981 22.416 227.781 22.08C225.885 21.528 224.469 20.76 223.533 19.776C222.597 18.792 222.129 17.568 222.129 16.104C222.129 15 222.441 14.016 223.065 13.152C223.713 12.264 224.625 11.568 225.801 11.064C227.001 10.536 228.381 10.272 229.941 10.272Z" fill="#141414"/>
</svg>
